<svg xmlns="http://www.w3.org/2000/svg" viewBox="0 0 24.95363 24.97614"><defs><style>.a{fill:#a82743;}</style></defs><path class="a" d="M0,13.3396l.93351-.25579c.03506.19347.06692.38239.10391.57028.05337.271.096.54531.169.81111.15647.56973.3137,1.14019.50087,1.70024.14065.42088.317.83113.49881,1.23656.14772.3295.31848.64963.495.965.1522.27192.31989.536.49376.79475.15535.23123.32291.45491.49546.67375a6.48542,6.48542,0,0,0,.499.58256c.32424.32357.64839.65079,1.00252.9398a7.21164,7.21164,0,0,0,.99676.67588,5.95333,5.95333,0,0,0,2.35941.75109,4.53745,4.53745,0,0,0,1.71478-.10426,3.43961,3.43961,0,0,0,.88291-.38782,4.07739,4.07739,0,0,0,1.05055-.95213,3.9625,3.9625,0,0,0,.50957-.91879,3.88829,3.88829,0,0,0,.223-1.87231,5.82408,5.82408,0,0,0-.15293-1.00538A6.83372,6.83372,0,0,0,12.2734,16.14a6.38053,6.38053,0,0,0-.36428-.63884q-.29674-.44835-.62438-.876c-.14712-.19191-.3159-.36764-.48029-.54571-.08246-.08933-.17676-.16773-.26958-.25471a7.46805,7.46805,0,0,1-2.97229,2.41485l-1.168-2.65426c.21554-.06788.42513-.1217.6254-.19953.393-.15275.78473-.31024,1.16976-.48194A3.69135,3.69135,0,0,0,9.191,12.25712c.17541-.16108.33888-.33584.50051-.51111a2.51422,2.51422,0,0,0,.53015-1.10131,2.16522,2.16522,0,0,0,.03846-1.01529,1.71392,1.71392,0,0,0-.3864-.84048,1.74567,1.74567,0,0,0-.79556-.47321,4.19509,4.19509,0,0,0-1.43409-.148,7.13159,7.13159,0,0,0-2.35966.51244c-.32623.13169-.644.28424-.96579.42706-.03493.01552-.0706.02939-.10571.04393L3.08042,6.52422c.16591-.07286.32972-.15181.4986-.21776a7.52116,7.52116,0,0,1,2.21914-.509,6.5601,6.5601,0,0,1,1.92872.11137,6.37521,6.37521,0,0,1,.82807.25452,3.74805,3.74805,0,0,1,1.13612.67318,4.93205,4.93205,0,0,1,.472.44167c.19117.21518.36158.44889.53923.676a3.783,3.783,0,0,1,.49459,1.00566,5.524,5.524,0,0,1,.29862,2.218,3.26547,3.26547,0,0,1-.20072,1.02547c-.05136.13869-.12575.26886-.19271.40927l.52093.46679c.1138-.09764.22933-.19545.34343-.29491a9.02414,9.02414,0,0,1,1.21132-.89187,6.10922,6.10922,0,0,1,1.3522-.63024,4.37288,4.37288,0,0,1,1.79432-.1956c.02611.00275.05248.00307.08626.00494.04355-.186.0825-.37057.13065-.55275a3.8548,3.8548,0,0,1,.16321-.54449,11.12385,11.12385,0,0,1,.50291-1.05946,3.26806,3.26806,0,0,1,.48814-.64013,3.49681,3.49681,0,0,1,2.064-1.05708,4.96087,4.96087,0,0,1,1.9929.0824,3.36241,3.36241,0,0,1,.89851.37655,3.65508,3.65508,0,0,1,1.05079.978,5.64488,5.64488,0,0,1,.49744.8713,7.06714,7.06714,0,0,1,.51921,1.72082,14.19875,14.19875,0,0,1,.22836,3.278A10.54542,10.54542,0,0,1,24.76,16.4422a9.04761,9.04761,0,0,1-.46414,1.69893,11.50759,11.50759,0,0,1-.52017,1.07429,5.19938,5.19938,0,0,1-.46943.69129,4.51182,4.51182,0,0,1-1.01147.96811,4.22421,4.22421,0,0,1-2.70108.709,3.15646,3.15646,0,0,1-1.19691-.28183,2.30574,2.30574,0,0,1-.59778-.42582,2.16014,2.16014,0,0,1-.42332-.62165,4.68988,4.68988,0,0,1-.413-1.56144c-.11-.90648-.06157-1.81746-.08334-2.72653a5.2502,5.2502,0,0,0-.10421-.9708,2.20648,2.20648,0,0,0-.27849-.66444.98175.98175,0,0,0-1-.44505,3.24176,3.24176,0,0,0-1.16892.31623c-.34611.16825-.68141.35879-1.02065.54106-.08129.04368-.15931.09343-.24977.14685.05612.07825.10458.14858.156.21671.06357.0843.13458.16339.19366.25063a10.23352,10.23352,0,0,1,.79189,1.27862c.17235.35817.34364.71712.50358,1.08092a6.34,6.34,0,0,1,.50615,2.48482,4.68731,4.68731,0,0,1-.41518,2.13871,4.627,4.627,0,0,1-.51125.81631,4.3204,4.3204,0,0,1-.97367.90731,5.03,5.03,0,0,1-2.12619.8338c-.24986.03776-.50243.05746-.75369.08612A.58321.58321,0,0,0,10.361,25H9.56094a1.14571,1.14571,0,0,0-.11747-.01839,7.95759,7.95759,0,0,1-4.264-1.54512,10.53325,10.53325,0,0,1-.98789-.82123c-.35256-.3366-.67793-.70257-1.00349-1.06618a7.79012,7.79012,0,0,1-.49139-.62707c-.17541-.24174-.34631-.48752-.50486-.74052-.17262-.27546-.3389-.55594-.48953-.84387-.17678-.33788-.34981-.6795-.49525-1.03157a13.20191,13.20191,0,0,1-.50183-1.36317c-.187-.64694-.34-1.30454-.48418-1.9627-.07886-.36-.11038-.73039-.16177-1.0963-.0217-.15449-.0396-.3095-.05923-.46428Zm17.25875-1.99021c.01015.01476.01263.0221.01771.02522a1.52148,1.52148,0,0,1,.67621.91385,4.67208,4.67208,0,0,1,.14181,1.30636c.00077.94968-.00261,1.89939.003,2.849a4.25672,4.25672,0,0,0,.1809,1.35625,2.17862,2.17862,0,0,0,.52559.95717,1.47672,1.47672,0,0,0,.68866.38314,2.904,2.904,0,0,0,1.84966-.22127,3.00764,3.00764,0,0,0,.94152-.67665,4.01943,4.01943,0,0,0,.50686-.62538,7.00335,7.00335,0,0,0,.48492-.90123,4.99041,4.99041,0,0,0,.34829-1.28743,7.91164,7.91164,0,0,0,.06-1.8932,5.21532,5.21532,0,0,0-.47341-1.92231,4.61748,4.61748,0,0,0-.559-.91448,3.34373,3.34373,0,0,0-.83367-.73511,2.91235,2.91235,0,0,0-.55892-.26013A3.38041,3.38041,0,0,0,19.572,9.59881a2.90853,2.90853,0,0,0-1.7741.9518c-.01314.01507-.02559.03089-.04.04469A2.803,2.803,0,0,0,17.25875,11.34939Z" transform="translate(0 -0.02386)"/><path class="a" d="M16.43689,2.63156l2.26294,1.84016c-.1569.16169-.30568.31638-.45629.46926a1.41446,1.41446,0,0,1-.12046.10359c-.26884.21741-.52872.44737-.80924.64854a6.09535,6.09535,0,0,1-1.5111.80033,4.924,4.924,0,0,1-1.99421.27529,6.12181,6.12181,0,0,1-2.022-.47167,6.35845,6.35845,0,0,1-.95778-.50972A6.45,6.45,0,0,1,9.7966,4.97379c-.16556-.16308-.334-.324-.48934-.49648-.18646-.20707-.36418-.42237-.5385-.63987-.1552-.19363-.3006-.39511-.45676-.60165l.83059-.6077c.09051.10078.17513.206.271.29964.2543.24832.49789.51109.77427.7325a4.10517,4.10517,0,0,0,1.48857.76641,4.38613,4.38613,0,0,0,1.9987.08345,3.78651,3.78651,0,0,0,1.50578-.656,5.07885,5.07885,0,0,0,1.00174-.93625C16.26163,2.8207,16.34886,2.73025,16.43689,2.63156Z" transform="translate(0 -0.02386)"/><path class="a" d="M11.49413,1.60291c.26072-.236.51392-.46524.76708-.6945l.03638-.03429c.28606-.26886.57361-.53616.857-.80783C13.2145.00883,13.25.00972,13.30841.069q.43753.44447.88289.88119c.23671.2326.47778.46075.71665.69116.02377.02293.04566.0478.07658.08036-.08072.07713-.15878.15262-.238.22686-.02391.02241-.0528.03955-.07646.06218q-.43992.42086-.87911.84247c-.16343.15593-.33087.3077-.49279.46516-.04966.04828-.08025.05-.12931-.00141q-.34749-.36444-.70129-.72287-.4502-.45846-.903-.91439C11.54363,1.65851,11.52419,1.63579,11.49413,1.60291Z" transform="translate(0 -0.02386)"/></svg>