<svg xmlns="http://www.w3.org/2000/svg" viewBox="0 0 200 200"><defs><style>.a{fill:#f15a24;}.b{fill:#e6e6e6;}.b,.d,.e,.f,.g,.h{stroke:#000;stroke-miterlimit:10;}.b,.e,.f{stroke-width:2px;}.c{fill:#b3b3b3;}.d{fill:#f7931e;stroke-width:2.23286px;}.e{fill:aqua;}.f,.h{fill:none;}.g{fill:#fff;}.g,.h{stroke-width:1.16175px;}</style></defs><circle class="a" cx="98.00248" cy="71.7072" r="50.37717"/><path class="b" d="M123.7196,60.47146c0,14.62938-11.85945,42.36973-26.48883,42.36973S72.56715,74.98653,70.74193,60.47146C69.05719,47.07362,76.44913,41.67494,85.134,44.15633c3.91212,1.11775,3.58291-5.227,11.97619-6.45162C111.58629,35.59258,123.7196,45.84209,123.7196,60.47146Z"/><path class="c" d="M122.71136,59.87874c0,13.75589-11.50479-2.53761-25.55383-2.53761s-23.56943,16.186-25.32225,2.53761c-1.61791-12.59788,5.4808-17.67421,13.82114-15.341,3.75694,1.051,3.44078-4.9149,11.50111-6.0664C111.05937,36.48534,122.71136,46.12286,122.71136,59.87874Z"/><path class="d" d="M121.78355,181.68347l.92781-12.32863-24.70888-4.98048L79.3821,168.13315l.39457,13.55032L49.14122,180.759c-5.08391-.68648-8.95334-5.7555-8.994-11.78236l-.14707-21.773a25.29174,25.29174,0,0,1,7.55581-18.639l13.98822-13.045,38.2375,22.52332,33.11407-24.28859,14.80149,15.32233a25.92982,25.92982,0,0,1,6.91254,17.85187l.0848,22.58076c.0226,6.01586-3.78014,11.06137-8.84626,11.73732l-24.06472.43673"/><path class="e" d="M80.21837,175.25275,100,183.25062l22.38286-8.00116c.54356.00915-.00355.90733,0,0l.00833-2.12783c-.01808-1.82043.83969-3.29142,1.92917-3.30835l8.88808-.13806c1.12563-.01749,1.99623-1.5832,1.9255-3.46288L133.752,129.48743c-.086-2.28472-1.48785-3.8133-2.75494-3.00394L100.0346,146.26076,67.53607,125.45022c-1.31643-.843-2.69692.74881-2.67374,3.083l.3666,36.9087c.01876,1.8891.97075,3.41814,2.10065,3.374l10.75354-.4205c1.1299-.04418,2.08189,1.48486,2.10065,3.374l.0346,3.48343"/><line class="f" x1="100.0346" y1="146.26076" x2="100" y2="183.25062"/><polygon class="g" points="89.478 168.365 74.31 161.663 74.31 139.541 89.206 147.767 89.478 168.365"/><line class="h" x1="109.15309" y1="152.1245" x2="127.32333" y2="139.40156"/><line class="h" x1="107.9124" y1="162.95711" x2="126.08264" y2="150.23417"/><line class="h" x1="108.29359" y1="173.01743" x2="126.46382" y2="160.29449"/><line class="h" x1="77.90872" y1="148.81056" x2="85.73201" y2="152.23325"/><line class="h" x1="77.57967" y1="156.28865" x2="85.40296" y2="159.71135"/></svg>