<svg xmlns="http://www.w3.org/2000/svg" viewBox="0 0 200 200"><defs><style>.a{fill:#754c24;}.a,.b,.c,.d,.e,.f,.g,.h,.i,.j,.k{stroke:#000;stroke-miterlimit:10;}.a,.b,.e,.f,.g,.h{stroke-width:3px;}.b{fill:#907830;}.c,.d{fill:#fff;}.c{stroke-width:1.12465px;}.d{stroke-width:1.12465px;}.e{fill:#3f7bff;}.f{fill:#ffcb5f;}.g{fill:none;}.h{fill:#c69c6d;}.i{fill:#c7b299;}.i,.k{stroke-width:2.392px;}.j{fill:#006fff;stroke-width:2.14087px;}.k{fill:#999;}</style></defs><rect class="a" x="43.43424" y="132.63027" width="125.06203" height="51.86104" rx="2"/><rect class="b" x="74.94789" y="147.76675" width="61.7866" height="22.58065" rx="2"/><rect class="c" x="88.18859" y="159.39454" width="1" height="1"/><rect class="d" x="104.83995" y="159.5" width="1" height="1"/><rect class="d" x="123.83995" y="159.5" width="1" height="1"/><rect class="a" x="27.05707" y="110.04963" width="154.34243" height="24.06948" rx="3"/><path class="e" d="M147.65633,100h29.75062a3,3,0,0,1,3,3v2.31266a3,3,0,0,1-3,3H147.65633a.5.5,0,0,1-.5-.5V100.5A.5.5,0,0,1,147.65633,100Z"/><path class="f" d="M152.871,90.69479H181.129a3,3,0,0,1,3,3V97a3,3,0,0,1-3,3H152.871a1,1,0,0,1-1-1V91.69479A1,1,0,0,1,152.871,90.69479Z"/><path class="f" d="M146.71092,79.34739H175.469a3,3,0,0,1,3,3v3.30521a3,3,0,0,1-3,3H146.71092a.5.5,0,0,1-.5-.5V79.84739A.5.5,0,0,1,146.71092,79.34739Z" transform="translate(324.6799 168) rotate(180)"/><path class="g" d="M28.05707,16.871H47.34491a8,8,0,0,1,8,8V48.129a1,1,0,0,1-1,1H28.05707a1,1,0,0,1-1-1V17.871A1,1,0,0,1,28.05707,16.871Z"/><path class="g" d="M56.196,16.871H82.48387a1,1,0,0,1,1,1V41.129a8,8,0,0,1-8,8H56.196a1,1,0,0,1-1-1V17.871A1,1,0,0,1,56.196,16.871Z" transform="translate(138.6799 66) rotate(180)"/><path class="h" d="M27.62731,41H50.73982a4.744,4.744,0,0,1,4.744,4.744v.82467A.43128.43128,0,0,1,55.05259,47H27.62731a.43128.43128,0,0,1-.43128-.43128V41.43128A.43128.43128,0,0,1,27.62731,41Z"/><path class="h" d="M55.62731,41H83.05259a.43128.43128,0,0,1,.43128.43128V42.256A4.744,4.744,0,0,1,78.73982,47H55.62731a.43128.43128,0,0,1-.43128-.43128V41.43128A.43128.43128,0,0,1,55.62731,41Z" transform="translate(138.6799 88) rotate(180)"/><rect class="g" x="33.26055" y="24.19355" width="12.90323" height="1.24069"/><rect class="g" x="62.88834" y="25.43424" width="12.90323" height="1.24069"/><rect class="g" x="33.26055" y="32.37965" width="12.90323" height="1.24069"/><rect class="g" x="62.88834" y="33.21712" width="12.90323" height="1.24069"/><circle class="i" cx="102.20348" cy="45.22332" r="18.54839"/><path class="j" d="M102.11908,67.36973h.00006a30.64513,30.64513,0,0,1,30.64513,30.64513v10.2978a0,0,0,0,1,0,0H71.47395a0,0,0,0,1,0,0V98.01486A30.64513,30.64513,0,0,1,102.11908,67.36973Z"/><path class="k" d="M120.88834,45c0,10.244-4.8044-8.89578-15.04839-8.89578S83.79156,55.244,83.79156,45a18.54839,18.54839,0,0,1,37.09678,0Z"/></svg>